<svg xmlns="http://www.w3.org/2000/svg" version="1.0" width="30.000000pt" height="30.000000pt" viewBox="0 0 30.000000 30.000000" preserveAspectRatio="xMidYMid meet">
    <g transform="translate(0.000000,30.000000) scale(0.100000,-0.100000)" fill="#000000" stroke="none">
        <path d="M250 267 c0 -12 -8 -17 -32 -17 -30 0 -31 0 -13 -20 10 -11 24 -20 32 -20 7 0 13 -8 13 -17 0 -14 5 -12 27 10 l28 27 -28 27 c-22 22 -27 24 -27 10z"/>
        <path d="M113 220 c-37 -45 -28 -71 30 -85 15 -4 27 -13 27 -21 0 -16 -36 -19 -45 -4 -8 14 -35 13 -35 -1 0 -13 47 -59 60 -59 5 0 21 11 35 24 19 18 26 33 23 53 -2 23 -10 30 -40 37 -21 5 -38 15 -38 23 0 16 24 17 50 1 30 -19 35 -2 9 31 -30 37 -48 38 -76 1z"/>
        <path d="M21 96 l-24 -26 26 -24 c19 -18 27 -21 27 -11 0 10 11 15 32 15 l32 0 -22 20 c-12 11 -26 20 -31 20 -5 0 -11 7 -13 16 -2 13 -8 11 -27 -10z"/>
    </g>
</svg>